<?xml version="1.0" encoding="UTF-8"?><svg id="uuid-9abb5a21-3ccf-46d4-b3e5-8af198dad5ff" xmlns="http://www.w3.org/2000/svg" viewBox="0 0 1164 180"><defs><style>.uuid-488527bd-f9dc-4ae2-979b-1e8483ece407{fill:#000;}.uuid-488527bd-f9dc-4ae2-979b-1e8483ece407,.uuid-751e3018-589a-4dcc-9300-08deeffb5c1c,.uuid-18c7fb18-8990-4a7e-9286-9ac43598fbc1,.uuid-bcfb5e35-f319-4507-bfd9-3f809cd188fd,.uuid-abb2b611-e5c1-401d-8c98-3c5f4e1e679f,.uuid-f8c9e4e1-6b2d-4bb1-adfd-f16cd44e0ac4{stroke-width:0px;}.uuid-751e3018-589a-4dcc-9300-08deeffb5c1c{fill:#32adc3;}.uuid-18c7fb18-8990-4a7e-9286-9ac43598fbc1{fill:#969899;}.uuid-bcfb5e35-f319-4507-bfd9-3f809cd188fd{fill:#ca278c;}.uuid-abb2b611-e5c1-401d-8c98-3c5f4e1e679f{fill:#f49c31;isolation:isolate;}.uuid-f8c9e4e1-6b2d-4bb1-adfd-f16cd44e0ac4{fill:#51539d;}</style></defs><path class="uuid-488527bd-f9dc-4ae2-979b-1e8483ece407" d="M339.06,13.65c22.82,0,37.17,8.47,37.17,27.16,0,9.87-6.02,17.78-14.21,20.79,8.96,3.01,16.31,11.41,16.31,21.98,0,18.83-13.37,28.07-36.89,28.07h-42.42V13.65h40.04ZM318.55,30.88v22.89h20.02c9.73,0,17.29-2.03,17.29-11.55s-7.7-11.34-17.36-11.34h-19.95ZM318.55,70.92v23.52l21.91.07c10.78,0,17.57-2.52,17.57-11.9s-6.79-11.69-17.57-11.69h-21.91Z"/><path class="uuid-488527bd-f9dc-4ae2-979b-1e8483ece407" d="M407.31,111.66h-19.53V13.65h19.53v98.01Z"/><path class="uuid-488527bd-f9dc-4ae2-979b-1e8483ece407" d="M461.49,13.65c22.82,0,37.17,8.47,37.17,27.16,0,9.87-6.02,17.78-14.21,20.79,8.96,3.01,16.31,11.41,16.31,21.98,0,18.83-13.37,28.07-36.89,28.07h-42.42V13.65h40.04ZM440.98,30.88v22.89h20.02c9.73,0,17.29-2.03,17.29-11.55s-7.7-11.34-17.36-11.34h-19.95ZM440.98,70.92v23.52l21.91.07c10.78,0,17.57-2.52,17.57-11.9s-6.79-11.69-17.57-11.69h-21.91Z"/><path class="uuid-488527bd-f9dc-4ae2-979b-1e8483ece407" d="M581.54,111.66h-71.34V13.65h19.53v79.74h51.81v18.27Z"/><path class="uuid-488527bd-f9dc-4ae2-979b-1e8483ece407" d="M612.34,111.66h-19.53V13.65h19.53v98.01Z"/><path class="uuid-488527bd-f9dc-4ae2-979b-1e8483ece407" d="M726.16,62.66c0,29.26-21.35,50.82-51.53,50.82s-51.46-21.56-51.46-50.82,21.28-50.83,51.46-50.83,51.53,21.56,51.53,50.83ZM643.55,62.66c0,19.04,13.09,32.06,31.08,32.06s31.08-13.02,31.08-32.06-13.02-32.06-31.08-32.06-31.08,13.02-31.08,32.06Z"/><path class="uuid-488527bd-f9dc-4ae2-979b-1e8483ece407" d="M780.25,76.74l-3.98-19.34h-.35l-3.81,19.57-7.91,34.69h-11.08l-13.07-64.34h9.49l5.74,31.82c1.33,7.27,2.44,14.94,3.34,23.03h.35c1.21-7.23,2.54-14.22,3.99-20.98l7.79-33.87h11.31l7.44,33.87c1.68,7.62,2.99,14.61,3.93,20.98h.35c1.21-9.45,2.38-17.13,3.52-23.03l5.98-31.82h9.26l-13.18,64.34h-11.43l-7.68-34.92Z"/><path class="uuid-488527bd-f9dc-4ae2-979b-1e8483ece407" d="M863.3,102.76h-.47c-3.01,3.79-6.09,6.42-9.26,7.88s-7.25,2.2-12.25,2.2c-6.37,0-11.36-1.68-14.97-5.04s-5.42-8.07-5.42-14.12c0-12.97,9.96-19.77,29.88-20.39l11.89-.41v-4.04c0-9.22-4.77-13.83-14.3-13.83-5.74,0-12.15,1.6-19.22,4.8l-3.69-8.03c7.66-3.75,15.14-5.62,22.44-5.62,8.87,0,15.28,1.7,19.25,5.1s5.95,8.85,5.95,16.35v44.06h-7.68l-2.17-8.91ZM853.1,80.61c-7.66.31-13.09,1.51-16.29,3.6s-4.8,5.28-4.8,9.58c0,6.95,3.91,10.43,11.72,10.43,5.74,0,10.32-1.59,13.74-4.78s5.13-7.67,5.13-13.45v-5.8l-9.49.41Z"/><path class="uuid-488527bd-f9dc-4ae2-979b-1e8483ece407" d="M928.98,58.52c-4.8-1.76-9.18-2.64-13.12-2.64-6.37,0-11.28,1.81-14.74,5.42s-5.19,8.84-5.19,15.67v34.69h-10.66V47.33h8.67l1.29,11.78h.47c2.97-4.65,6.15-7.97,9.55-9.96s7.58-2.99,12.54-2.99c4.61,0,9.3.88,14.06,2.64l-2.87,9.73Z"/><path class="uuid-488527bd-f9dc-4ae2-979b-1e8483ece407" d="M978.66,103.05c-4.41,6.52-10.7,9.79-18.87,9.79s-14.01-2.92-18.49-8.76-6.71-13.99-6.71-24.46,2.25-18.76,6.74-24.64,10.64-8.82,18.46-8.82,14.34,3.12,18.87,9.38h.7c-.47-5.04-.7-8.2-.7-9.49v-25.55h10.66v91.17h-8.61l-1.58-8.61h-.47ZM978.66,79.61c0-8.87-1.36-15.19-4.07-18.96s-7.04-5.65-12.98-5.65c-10.62,0-15.94,8.24-15.94,24.73s5.35,24.26,16.05,24.26c5.94,0,10.21-1.73,12.8-5.19s3.97-9.05,4.13-16.79v-2.4Z"/><path class="uuid-488527bd-f9dc-4ae2-979b-1e8483ece407" d="M1012.89,81.55c.31,14.65,7.03,21.97,20.16,21.97,7.62,0,14.84-1.48,21.68-4.45v9.38c-6.48,2.93-13.59,4.39-21.33,4.39-9.57,0-17.23-2.92-22.97-8.76s-8.61-13.88-8.61-24.11,2.65-18.62,7.94-24.7,12.37-9.11,21.24-9.11c8.28,0,14.89,2.62,19.83,7.85s7.41,12.21,7.41,20.92v6.62h-45.35ZM1046.7,72.87c0-11.91-5.31-17.87-15.94-17.87s-16.62,5.96-17.64,17.87h33.57Z"/><path class="uuid-488527bd-f9dc-4ae2-979b-1e8483ece407" d="M1113.44,70.24c0-10.16-4.65-15.23-13.95-15.23-11.99,0-17.99,7.77-17.99,23.32v33.34h-10.66V47.33h8.61l1.58,8.67h.59c4.02-6.56,10.59-9.84,19.69-9.84,15.2,0,22.79,7.83,22.79,23.5v42.01h-10.66v-41.43Z"/><polyline class="uuid-f8c9e4e1-6b2d-4bb1-adfd-f16cd44e0ac4" points="161.73 12.71 231.08 12.71 231.08 76.09 161.73 76.09"/><path class="uuid-bcfb5e35-f319-4507-bfd9-3f809cd188fd" d="M155.19,168.03c-6.3-1.7-15.35-4.89-25.01-11.08-10.11-6.49-16.32-13.35-19.61-17.05-7.93-8.9-12.13-16.72-16.2-24.44-5.44-10.3-14.25-26.99-9.38-31.55,1.37-1.28,3.38-1.18,4.26-1.14,9.69.46,33.16.31,65.37,0"/><path class="uuid-abb2b611-e5c1-401d-8c98-3c5f4e1e679f" d="M234.21,79.36h-77.6v92.06c.74,0,1.48-.13,2.18-.36,11.95-3.96,69.18-26.26,75.43-91.69h0Z"/><polyline class="uuid-751e3018-589a-4dcc-9300-08deeffb5c1c" points="81.58 12.71 154.05 12.71 154.05 77.51 81.58 79.36"/><path class="uuid-488527bd-f9dc-4ae2-979b-1e8483ece407" d="M241.59,67.65V15.54c0-7.85-6.37-14.2-14.21-14.21H85.27c-7.85,0-14.2,6.37-14.21,14.21v52.11c0,4.31.21,8.46.59,12.47,0,.06.01.12.02.18,6.67,69.63,67.49,93.4,80.25,97.63,2.87.97,5.97.97,8.84,0,12.76-4.23,73.57-27.99,80.24-97.61,0-.08.02-.15.02-.23.38-4,.59-8.14.59-12.45ZM227.38,67.65c0,1.61-.04,3.18-.1,4.74h-63.84V15.54h63.95v52.11ZM85.27,15.54h63.96v56.85h-63.85c-.06-1.56-.1-3.13-.1-4.74V15.54ZM86.84,86.61h62.38v75.12c-17.46-7.4-54.34-28.32-62.38-75.12ZM163.43,161.72v-75.11h62.37c-8.04,46.77-44.88,67.69-62.37,75.11Z"/><path class="uuid-18c7fb18-8990-4a7e-9286-9ac43598fbc1" d="M615.15,154.4h-16.68l-2.76,7.98h-8.82l15.06-41.94h9.78l15.06,41.94h-8.88l-2.76-7.98ZM612.87,147.68l-6.06-17.52-6.06,17.52h12.12Z"/><path class="uuid-18c7fb18-8990-4a7e-9286-9ac43598fbc1" d="M638.52,136.71c1.34-2.6,3.17-4.6,5.49-6,2.32-1.4,4.9-2.1,7.74-2.1,2.16,0,4.22.47,6.18,1.41,1.96.94,3.52,2.19,4.68,3.75v-15.78h8.52v44.4h-8.52v-4.92c-1.04,1.64-2.5,2.96-4.38,3.96-1.88,1-4.06,1.5-6.54,1.5-2.8,0-5.36-.72-7.68-2.16-2.32-1.44-4.15-3.47-5.49-6.09-1.34-2.62-2.01-5.63-2.01-9.03s.67-6.34,2.01-8.94ZM661.47,140.51c-.8-1.46-1.88-2.58-3.24-3.36-1.36-.78-2.82-1.17-4.38-1.17s-3,.38-4.32,1.14c-1.32.76-2.39,1.87-3.21,3.33-.82,1.46-1.23,3.19-1.23,5.19s.41,3.75,1.23,5.25c.82,1.5,1.9,2.65,3.24,3.45,1.34.8,2.77,1.2,4.29,1.2s3.02-.39,4.38-1.17c1.36-.78,2.44-1.9,3.24-3.36.8-1.46,1.2-3.21,1.2-5.25s-.4-3.79-1.2-5.25Z"/><path class="uuid-18c7fb18-8990-4a7e-9286-9ac43598fbc1" d="M736.74,132.42c2.5,2.5,3.75,5.99,3.75,10.47v19.5h-8.4v-18.36c0-2.6-.66-4.59-1.98-5.97s-3.12-2.07-5.4-2.07-4.09.69-5.43,2.07c-1.34,1.38-2.01,3.37-2.01,5.97v18.36h-8.4v-18.36c0-2.6-.66-4.59-1.98-5.97-1.32-1.38-3.12-2.07-5.4-2.07s-4.15.69-5.49,2.07-2.01,3.37-2.01,5.97v18.36h-8.4v-33.24h8.4v4.02c1.08-1.4,2.47-2.5,4.17-3.3s3.57-1.2,5.61-1.2c2.6,0,4.92.55,6.96,1.65,2.04,1.1,3.62,2.67,4.74,4.71,1.08-1.92,2.65-3.46,4.71-4.62,2.06-1.16,4.29-1.74,6.69-1.74,4.08,0,7.37,1.25,9.87,3.75Z"/><path class="uuid-18c7fb18-8990-4a7e-9286-9ac43598fbc1" d="M755.28,123.77c-.98-.94-1.47-2.11-1.47-3.51s.49-2.57,1.47-3.51c.98-.94,2.21-1.41,3.69-1.41s2.71.47,3.69,1.41c.98.94,1.47,2.11,1.47,3.51s-.49,2.57-1.47,3.51c-.98.94-2.21,1.41-3.69,1.41s-2.71-.47-3.69-1.41ZM763.11,129.14v33.24h-8.4v-33.24h8.4Z"/><path class="uuid-18c7fb18-8990-4a7e-9286-9ac43598fbc1" d="M805.65,132.42c2.44,2.5,3.66,5.99,3.66,10.47v19.5h-8.4v-18.36c0-2.64-.66-4.67-1.98-6.09-1.32-1.42-3.12-2.13-5.4-2.13s-4.15.71-5.49,2.13c-1.34,1.42-2.01,3.45-2.01,6.09v18.36h-8.4v-33.24h8.4v4.14c1.12-1.44,2.55-2.57,4.29-3.39,1.74-.82,3.65-1.23,5.73-1.23,3.96,0,7.16,1.25,9.6,3.75Z"/><path class="uuid-18c7fb18-8990-4a7e-9286-9ac43598fbc1" d="M844.8,130.31c1.86-3.26,4.4-5.8,7.62-7.62,3.22-1.82,6.83-2.73,10.83-2.73,4.68,0,8.78,1.2,12.3,3.6,3.52,2.4,5.98,5.72,7.38,9.96h-9.66c-.96-2-2.31-3.5-4.05-4.5-1.74-1-3.75-1.5-6.03-1.5-2.44,0-4.61.57-6.51,1.71-1.9,1.14-3.38,2.75-4.44,4.83-1.06,2.08-1.59,4.52-1.59,7.32s.53,5.19,1.59,7.29c1.06,2.1,2.54,3.72,4.44,4.86,1.9,1.14,4.07,1.71,6.51,1.71,2.28,0,4.29-.51,6.03-1.53,1.74-1.02,3.09-2.53,4.05-4.53h9.66c-1.4,4.28-3.85,7.61-7.35,9.99-3.5,2.38-7.61,3.57-12.33,3.57-4,0-7.61-.91-10.83-2.73-3.22-1.82-5.76-4.35-7.62-7.59s-2.79-6.92-2.79-11.04.93-7.81,2.79-11.07Z"/><path class="uuid-18c7fb18-8990-4a7e-9286-9ac43598fbc1" d="M902.49,160.79c-2.56-1.42-4.57-3.43-6.03-6.03-1.46-2.6-2.19-5.6-2.19-9s.75-6.4,2.25-9c1.5-2.6,3.55-4.61,6.15-6.03,2.6-1.42,5.5-2.13,8.7-2.13s6.1.71,8.7,2.13c2.6,1.42,4.65,3.43,6.15,6.03,1.5,2.6,2.25,5.6,2.25,9s-.77,6.4-2.31,9c-1.54,2.6-3.62,4.61-6.24,6.03-2.62,1.42-5.55,2.13-8.79,2.13s-6.08-.71-8.64-2.13ZM915.42,154.5c1.34-.74,2.41-1.85,3.21-3.33.8-1.48,1.2-3.28,1.2-5.4,0-3.16-.83-5.59-2.49-7.29-1.66-1.7-3.69-2.55-6.09-2.55s-4.41.85-6.03,2.55c-1.62,1.7-2.43,4.13-2.43,7.29s.79,5.59,2.37,7.29c1.58,1.7,3.57,2.55,5.97,2.55,1.52,0,2.95-.37,4.29-1.11Z"/><path class="uuid-18c7fb18-8990-4a7e-9286-9ac43598fbc1" d="M968.91,132.42c2.44,2.5,3.66,5.99,3.66,10.47v19.5h-8.4v-18.36c0-2.64-.66-4.67-1.98-6.09-1.32-1.42-3.12-2.13-5.4-2.13s-4.15.71-5.49,2.13c-1.34,1.42-2.01,3.45-2.01,6.09v18.36h-8.4v-33.24h8.4v4.14c1.12-1.44,2.55-2.57,4.29-3.39,1.74-.82,3.65-1.23,5.73-1.23,3.96,0,7.16,1.25,9.6,3.75Z"/><path class="uuid-18c7fb18-8990-4a7e-9286-9ac43598fbc1" d="M992.19,161.46c-2.16-.98-3.87-2.31-5.13-3.99s-1.95-3.54-2.07-5.58h8.46c.16,1.28.79,2.34,1.89,3.18,1.1.84,2.47,1.26,4.11,1.26s2.85-.32,3.75-.96c.9-.64,1.35-1.46,1.35-2.46,0-1.08-.55-1.89-1.65-2.43-1.1-.54-2.85-1.13-5.25-1.77-2.48-.6-4.51-1.22-6.09-1.86-1.58-.64-2.94-1.62-4.08-2.94-1.14-1.32-1.71-3.1-1.71-5.34,0-1.84.53-3.52,1.59-5.04,1.06-1.52,2.58-2.72,4.56-3.6,1.98-.88,4.31-1.32,6.99-1.32,3.96,0,7.12.99,9.48,2.97,2.36,1.98,3.66,4.65,3.9,8.01h-8.04c-.12-1.32-.67-2.37-1.65-3.15-.98-.78-2.29-1.17-3.93-1.17-1.52,0-2.69.28-3.51.84-.82.56-1.23,1.34-1.23,2.34,0,1.12.56,1.97,1.68,2.55,1.12.58,2.86,1.17,5.22,1.77,2.4.6,4.38,1.22,5.94,1.86,1.56.64,2.91,1.63,4.05,2.97,1.14,1.34,1.73,3.11,1.77,5.31,0,1.92-.53,3.64-1.59,5.16-1.06,1.52-2.58,2.71-4.56,3.57-1.98.86-4.29,1.29-6.93,1.29s-5.16-.49-7.32-1.47Z"/><path class="uuid-18c7fb18-8990-4a7e-9286-9ac43598fbc1" d="M1031.85,160.79c-2.56-1.42-4.57-3.43-6.03-6.03-1.46-2.6-2.19-5.6-2.19-9s.75-6.4,2.25-9c1.5-2.6,3.55-4.61,6.15-6.03,2.6-1.42,5.5-2.13,8.7-2.13s6.1.71,8.7,2.13c2.6,1.42,4.65,3.43,6.15,6.03,1.5,2.6,2.25,5.6,2.25,9s-.77,6.4-2.31,9c-1.54,2.6-3.62,4.61-6.24,6.03-2.62,1.42-5.55,2.13-8.79,2.13s-6.08-.71-8.64-2.13ZM1044.78,154.5c1.34-.74,2.41-1.85,3.21-3.33.8-1.48,1.2-3.28,1.2-5.4,0-3.16-.83-5.59-2.49-7.29-1.66-1.7-3.69-2.55-6.09-2.55s-4.41.85-6.03,2.55c-1.62,1.7-2.43,4.13-2.43,7.29s.79,5.59,2.37,7.29c1.58,1.7,3.57,2.55,5.97,2.55,1.52,0,2.95-.37,4.29-1.11Z"/><path class="uuid-18c7fb18-8990-4a7e-9286-9ac43598fbc1" d="M1078.65,117.98v44.4h-8.4v-44.4h8.4Z"/><path class="uuid-18c7fb18-8990-4a7e-9286-9ac43598fbc1" d="M1123.83,148.29h-24.3c.2,2.4,1.04,4.28,2.52,5.64,1.48,1.36,3.3,2.04,5.46,2.04,3.12,0,5.34-1.34,6.66-4.02h9.06c-.96,3.2-2.8,5.83-5.52,7.89-2.72,2.06-6.06,3.09-10.02,3.09-3.2,0-6.07-.71-8.61-2.13s-4.52-3.43-5.94-6.03c-1.42-2.6-2.13-5.6-2.13-9s.7-6.46,2.1-9.06c1.4-2.6,3.36-4.6,5.88-6,2.52-1.4,5.42-2.1,8.7-2.1s5.99.68,8.49,2.04c2.5,1.36,4.44,3.29,5.82,5.79,1.38,2.5,2.07,5.37,2.07,8.61,0,1.2-.08,2.28-.24,3.24ZM1115.37,142.64c-.04-2.16-.82-3.89-2.34-5.19-1.52-1.3-3.38-1.95-5.58-1.95-2.08,0-3.83.63-5.25,1.89s-2.29,3.01-2.61,5.25h15.78Z"/></svg>