<?xml version="1.0" encoding="UTF-8"?><svg id="uuid-e4554926-e0fe-4fbd-aac4-edd4d55d626f" xmlns="http://www.w3.org/2000/svg" viewBox="0 0 1164 180"><defs><style>.uuid-dbe8dda0-b7cb-434e-84d6-594ef315866c{fill:#000;}.uuid-dbe8dda0-b7cb-434e-84d6-594ef315866c,.uuid-99a46fa0-15a3-4a90-bdf3-8faa82ed3040,.uuid-cb8717f6-aeb0-4bbc-b892-fb8bc51029be,.uuid-bb3f705c-6ec0-4946-a159-00e1949ac590,.uuid-ba64a1e7-4ece-44b9-819d-3921faf54624,.uuid-60f8ebaf-0a2b-4f25-9bca-137de472aa12{stroke-width:0px;}.uuid-99a46fa0-15a3-4a90-bdf3-8faa82ed3040{fill:#32adc3;}.uuid-cb8717f6-aeb0-4bbc-b892-fb8bc51029be{fill:#c6c6c6;}.uuid-bb3f705c-6ec0-4946-a159-00e1949ac590{fill:#ca278c;}.uuid-ba64a1e7-4ece-44b9-819d-3921faf54624{fill:#f49c31;isolation:isolate;}.uuid-60f8ebaf-0a2b-4f25-9bca-137de472aa12{fill:#51539d;}</style></defs><path class="uuid-dbe8dda0-b7cb-434e-84d6-594ef315866c" d="M339.06,13.65c22.82,0,37.17,8.47,37.17,27.16,0,9.87-6.02,17.78-14.21,20.79,8.96,3.01,16.31,11.41,16.31,21.98,0,18.83-13.37,28.07-36.89,28.07h-42.42V13.65h40.04ZM318.55,30.88v22.89h20.02c9.73,0,17.29-2.03,17.29-11.55s-7.7-11.34-17.36-11.34h-19.95ZM318.55,70.92v23.52l21.91.07c10.78,0,17.57-2.52,17.57-11.9s-6.79-11.69-17.57-11.69h-21.91Z"/><path class="uuid-dbe8dda0-b7cb-434e-84d6-594ef315866c" d="M407.31,111.66h-19.53V13.65h19.53v98.01Z"/><path class="uuid-dbe8dda0-b7cb-434e-84d6-594ef315866c" d="M461.49,13.65c22.82,0,37.17,8.47,37.17,27.16,0,9.87-6.02,17.78-14.21,20.79,8.96,3.01,16.31,11.41,16.31,21.98,0,18.83-13.37,28.07-36.89,28.07h-42.42V13.65h40.04ZM440.98,30.88v22.89h20.02c9.73,0,17.29-2.03,17.29-11.55s-7.7-11.34-17.36-11.34h-19.95ZM440.98,70.92v23.52l21.91.07c10.78,0,17.57-2.52,17.57-11.9s-6.79-11.69-17.57-11.69h-21.91Z"/><path class="uuid-dbe8dda0-b7cb-434e-84d6-594ef315866c" d="M581.54,111.66h-71.34V13.65h19.53v79.74h51.81v18.27Z"/><path class="uuid-dbe8dda0-b7cb-434e-84d6-594ef315866c" d="M612.34,111.66h-19.53V13.65h19.53v98.01Z"/><path class="uuid-dbe8dda0-b7cb-434e-84d6-594ef315866c" d="M726.16,62.66c0,29.26-21.35,50.82-51.53,50.82s-51.46-21.56-51.46-50.82,21.28-50.83,51.46-50.83,51.53,21.56,51.53,50.83ZM643.55,62.66c0,19.04,13.09,32.06,31.08,32.06s31.08-13.02,31.08-32.06-13.02-32.06-31.08-32.06-31.08,13.02-31.08,32.06Z"/><path class="uuid-dbe8dda0-b7cb-434e-84d6-594ef315866c" d="M780.25,76.74l-3.98-19.34h-.35l-3.81,19.57-7.91,34.69h-11.08l-13.07-64.34h9.49l5.74,31.82c1.33,7.27,2.44,14.94,3.34,23.03h.35c1.21-7.23,2.54-14.22,3.99-20.98l7.79-33.87h11.31l7.44,33.87c1.68,7.62,2.99,14.61,3.93,20.98h.35c1.21-9.45,2.38-17.13,3.52-23.03l5.98-31.82h9.26l-13.18,64.34h-11.43l-7.68-34.92Z"/><path class="uuid-dbe8dda0-b7cb-434e-84d6-594ef315866c" d="M863.3,102.76h-.47c-3.01,3.79-6.09,6.42-9.26,7.88s-7.25,2.2-12.25,2.2c-6.37,0-11.36-1.68-14.97-5.04s-5.42-8.07-5.42-14.12c0-12.97,9.96-19.77,29.88-20.39l11.89-.41v-4.04c0-9.22-4.77-13.83-14.3-13.83-5.74,0-12.15,1.6-19.22,4.8l-3.69-8.03c7.66-3.75,15.14-5.62,22.44-5.62,8.87,0,15.28,1.7,19.25,5.1s5.95,8.85,5.95,16.35v44.06h-7.68l-2.17-8.91ZM853.1,80.61c-7.66.31-13.09,1.51-16.29,3.6s-4.8,5.28-4.8,9.58c0,6.95,3.91,10.43,11.72,10.43,5.74,0,10.32-1.59,13.74-4.78s5.13-7.67,5.13-13.45v-5.8l-9.49.41Z"/><path class="uuid-dbe8dda0-b7cb-434e-84d6-594ef315866c" d="M928.98,58.52c-4.8-1.76-9.18-2.64-13.12-2.64-6.37,0-11.28,1.81-14.74,5.42s-5.19,8.84-5.19,15.67v34.69h-10.66V47.33h8.67l1.29,11.78h.47c2.97-4.65,6.15-7.97,9.55-9.96s7.58-2.99,12.54-2.99c4.61,0,9.3.88,14.06,2.64l-2.87,9.73Z"/><path class="uuid-dbe8dda0-b7cb-434e-84d6-594ef315866c" d="M978.66,103.05c-4.41,6.52-10.7,9.79-18.87,9.79s-14.01-2.92-18.49-8.76-6.71-13.99-6.71-24.46,2.25-18.76,6.74-24.64,10.64-8.82,18.46-8.82,14.34,3.12,18.87,9.38h.7c-.47-5.04-.7-8.2-.7-9.49v-25.55h10.66v91.17h-8.61l-1.58-8.61h-.47ZM978.66,79.61c0-8.87-1.36-15.19-4.07-18.96s-7.04-5.65-12.98-5.65c-10.62,0-15.94,8.24-15.94,24.73s5.35,24.26,16.05,24.26c5.94,0,10.21-1.73,12.8-5.19s3.97-9.05,4.13-16.79v-2.4Z"/><path class="uuid-dbe8dda0-b7cb-434e-84d6-594ef315866c" d="M1012.89,81.55c.31,14.65,7.03,21.97,20.16,21.97,7.62,0,14.84-1.48,21.68-4.45v9.38c-6.48,2.93-13.59,4.39-21.33,4.39-9.57,0-17.23-2.92-22.97-8.76s-8.61-13.88-8.61-24.11,2.65-18.62,7.94-24.7,12.37-9.11,21.24-9.11c8.28,0,14.89,2.62,19.83,7.85s7.41,12.21,7.41,20.92v6.62h-45.35ZM1046.7,72.87c0-11.91-5.31-17.87-15.94-17.87s-16.62,5.96-17.64,17.87h33.57Z"/><path class="uuid-dbe8dda0-b7cb-434e-84d6-594ef315866c" d="M1113.44,70.24c0-10.16-4.65-15.23-13.95-15.23-11.99,0-17.99,7.77-17.99,23.32v33.34h-10.66V47.33h8.61l1.58,8.67h.59c4.02-6.56,10.59-9.84,19.69-9.84,15.2,0,22.79,7.83,22.79,23.5v42.01h-10.66v-41.43Z"/><polyline class="uuid-60f8ebaf-0a2b-4f25-9bca-137de472aa12" points="161.73 12.71 231.08 12.71 231.08 76.09 161.73 76.09"/><path class="uuid-bb3f705c-6ec0-4946-a159-00e1949ac590" d="M155.19,168.03c-6.3-1.7-15.35-4.89-25.01-11.08-10.11-6.49-16.32-13.35-19.61-17.05-7.93-8.9-12.13-16.72-16.2-24.44-5.44-10.3-14.25-26.99-9.38-31.55,1.37-1.28,3.38-1.18,4.26-1.14,9.69.46,33.16.31,65.37,0"/><path class="uuid-ba64a1e7-4ece-44b9-819d-3921faf54624" d="M234.21,79.36h-77.6v92.06c.74,0,1.48-.13,2.18-.36,11.95-3.96,69.18-26.26,75.43-91.69h0Z"/><polyline class="uuid-99a46fa0-15a3-4a90-bdf3-8faa82ed3040" points="81.58 12.71 154.05 12.71 154.05 77.51 81.58 79.36"/><path class="uuid-dbe8dda0-b7cb-434e-84d6-594ef315866c" d="M241.59,67.65V15.54c0-7.85-6.37-14.2-14.21-14.21H85.27c-7.85,0-14.2,6.37-14.21,14.21v52.11c0,4.31.21,8.46.59,12.47,0,.06.01.12.02.18,6.67,69.63,67.49,93.4,80.25,97.63,2.87.97,5.97.97,8.84,0,12.76-4.23,73.57-27.99,80.24-97.61,0-.08.02-.15.02-.23.38-4,.59-8.14.59-12.45ZM227.38,67.65c0,1.61-.04,3.18-.1,4.74h-63.84V15.54h63.95v52.11ZM85.27,15.54h63.96v56.85h-63.85c-.06-1.56-.1-3.13-.1-4.74V15.54ZM86.84,86.61h62.38v75.12c-17.46-7.4-54.34-28.32-62.38-75.12ZM163.43,161.72v-75.11h62.37c-8.04,46.77-44.88,67.69-62.37,75.11Z"/><path class="uuid-cb8717f6-aeb0-4bbc-b892-fb8bc51029be" d="M602.46,139.73c-1.06,1.96-2.72,3.54-4.98,4.74-2.26,1.2-5.11,1.8-8.55,1.8h-7.02v16.08h-8.4v-41.88h15.42c3.24,0,6,.56,8.28,1.68,2.28,1.12,3.99,2.66,5.13,4.62,1.14,1.96,1.71,4.18,1.71,6.66,0,2.24-.53,4.34-1.59,6.3ZM593.73,137.9c1.12-1.06,1.68-2.55,1.68-4.47,0-4.08-2.28-6.12-6.84-6.12h-6.66v12.18h6.66c2.32,0,4.04-.53,5.16-1.59Z"/><path class="uuid-cb8717f6-aeb0-4bbc-b892-fb8bc51029be" d="M616.08,136.67c1.34-2.6,3.16-4.6,5.46-6,2.3-1.4,4.87-2.1,7.71-2.1,2.48,0,4.65.5,6.51,1.5,1.86,1,3.35,2.26,4.47,3.78v-4.74h8.46v33.24h-8.46v-4.86c-1.08,1.56-2.57,2.85-4.47,3.87-1.9,1.02-4.09,1.53-6.57,1.53-2.8,0-5.35-.72-7.65-2.16-2.3-1.44-4.12-3.47-5.46-6.09-1.34-2.62-2.01-5.63-2.01-9.03s.67-6.34,2.01-8.94ZM639.03,140.48c-.8-1.46-1.88-2.58-3.24-3.36-1.36-.78-2.82-1.17-4.38-1.17s-3,.38-4.32,1.14c-1.32.76-2.39,1.87-3.21,3.33-.82,1.46-1.23,3.19-1.23,5.19s.41,3.75,1.23,5.25c.82,1.5,1.9,2.65,3.24,3.45,1.34.8,2.77,1.2,4.29,1.2s3.02-.39,4.38-1.17c1.36-.78,2.44-1.9,3.24-3.36.8-1.46,1.2-3.21,1.2-5.25s-.4-3.79-1.2-5.25Z"/><path class="uuid-cb8717f6-aeb0-4bbc-b892-fb8bc51029be" d="M668.55,161.42c-2.16-.98-3.87-2.31-5.13-3.99s-1.95-3.54-2.07-5.58h8.46c.16,1.28.79,2.34,1.89,3.18,1.1.84,2.47,1.26,4.11,1.26s2.85-.32,3.75-.96c.9-.64,1.35-1.46,1.35-2.46,0-1.08-.55-1.89-1.65-2.43-1.1-.54-2.85-1.13-5.25-1.77-2.48-.6-4.51-1.22-6.09-1.86-1.58-.64-2.94-1.62-4.08-2.94-1.14-1.32-1.71-3.1-1.71-5.34,0-1.84.53-3.52,1.59-5.04,1.06-1.52,2.58-2.72,4.56-3.6,1.98-.88,4.31-1.32,6.99-1.32,3.96,0,7.12.99,9.48,2.97,2.36,1.98,3.66,4.65,3.9,8.01h-8.04c-.12-1.32-.67-2.37-1.65-3.15-.98-.78-2.29-1.17-3.93-1.17-1.52,0-2.69.28-3.51.84-.82.56-1.23,1.34-1.23,2.34,0,1.12.56,1.97,1.68,2.55s2.86,1.17,5.22,1.77c2.4.6,4.38,1.22,5.94,1.86,1.56.64,2.91,1.63,4.05,2.97,1.14,1.34,1.73,3.11,1.77,5.31,0,1.92-.53,3.64-1.59,5.16-1.06,1.52-2.58,2.71-4.56,3.57-1.98.86-4.29,1.29-6.93,1.29s-5.16-.49-7.32-1.47Z"/><path class="uuid-cb8717f6-aeb0-4bbc-b892-fb8bc51029be" d="M707.49,161.42c-2.16-.98-3.87-2.31-5.13-3.99-1.26-1.68-1.95-3.54-2.07-5.58h8.46c.16,1.28.79,2.34,1.89,3.18,1.1.84,2.47,1.26,4.11,1.26s2.85-.32,3.75-.96,1.35-1.46,1.35-2.46c0-1.08-.55-1.89-1.65-2.43-1.1-.54-2.85-1.13-5.25-1.77-2.48-.6-4.51-1.22-6.09-1.86-1.58-.64-2.94-1.62-4.08-2.94-1.14-1.32-1.71-3.1-1.71-5.34,0-1.84.53-3.52,1.59-5.04,1.06-1.52,2.58-2.72,4.56-3.6,1.98-.88,4.31-1.32,6.99-1.32,3.96,0,7.12.99,9.48,2.97,2.36,1.98,3.66,4.65,3.9,8.01h-8.04c-.12-1.32-.67-2.37-1.65-3.15-.98-.78-2.29-1.17-3.93-1.17-1.52,0-2.69.28-3.51.84-.82.56-1.23,1.34-1.23,2.34,0,1.12.56,1.97,1.68,2.55,1.12.58,2.86,1.17,5.22,1.77,2.4.6,4.38,1.22,5.94,1.86,1.56.64,2.91,1.63,4.05,2.97,1.14,1.34,1.73,3.11,1.77,5.31,0,1.92-.53,3.64-1.59,5.16-1.06,1.52-2.58,2.71-4.56,3.57-1.98.86-4.29,1.29-6.93,1.29s-5.16-.49-7.32-1.47Z"/><path class="uuid-cb8717f6-aeb0-4bbc-b892-fb8bc51029be" d="M787.11,129.11l-9.72,33.24h-9.06l-6.06-23.22-6.06,23.22h-9.12l-9.78-33.24h8.52l5.88,25.32,6.36-25.32h8.88l6.24,25.26,5.88-25.26h8.04Z"/><path class="uuid-cb8717f6-aeb0-4bbc-b892-fb8bc51029be" d="M804.03,160.76c-2.56-1.42-4.57-3.43-6.03-6.03-1.46-2.6-2.19-5.6-2.19-9s.75-6.4,2.25-9c1.5-2.6,3.55-4.61,6.15-6.03,2.6-1.42,5.5-2.13,8.7-2.13s6.1.71,8.7,2.13c2.6,1.42,4.65,3.43,6.15,6.03,1.5,2.6,2.25,5.6,2.25,9s-.77,6.4-2.31,9c-1.54,2.6-3.62,4.61-6.24,6.03-2.62,1.42-5.55,2.13-8.79,2.13s-6.08-.71-8.64-2.13ZM816.96,154.46c1.34-.74,2.41-1.85,3.21-3.33.8-1.48,1.2-3.28,1.2-5.4,0-3.16-.83-5.59-2.49-7.29-1.66-1.7-3.69-2.55-6.09-2.55s-4.41.85-6.03,2.55c-1.62,1.7-2.43,4.13-2.43,7.29s.79,5.59,2.37,7.29c1.58,1.7,3.57,2.55,5.97,2.55,1.52,0,2.95-.37,4.29-1.11Z"/><path class="uuid-cb8717f6-aeb0-4bbc-b892-fb8bc51029be" d="M855.06,130.13c1.74-1,3.73-1.5,5.97-1.5v8.82h-2.22c-2.64,0-4.63.62-5.97,1.86-1.34,1.24-2.01,3.4-2.01,6.48v16.56h-8.4v-33.24h8.4v5.16c1.08-1.76,2.49-3.14,4.23-4.14Z"/><path class="uuid-cb8717f6-aeb0-4bbc-b892-fb8bc51029be" d="M872.76,136.67c1.34-2.6,3.17-4.6,5.49-6,2.32-1.4,4.9-2.1,7.74-2.1,2.16,0,4.22.47,6.18,1.41,1.96.94,3.52,2.19,4.68,3.75v-15.78h8.52v44.4h-8.52v-4.92c-1.04,1.64-2.5,2.96-4.38,3.96-1.88,1-4.06,1.5-6.54,1.5-2.8,0-5.36-.72-7.68-2.16-2.32-1.44-4.15-3.47-5.49-6.09-1.34-2.62-2.01-5.63-2.01-9.03s.67-6.34,2.01-8.94ZM895.71,140.48c-.8-1.46-1.88-2.58-3.24-3.36-1.36-.78-2.82-1.17-4.38-1.17s-3,.38-4.32,1.14-2.39,1.87-3.21,3.33c-.82,1.46-1.23,3.19-1.23,5.19s.41,3.75,1.23,5.25c.82,1.5,1.9,2.65,3.24,3.45,1.34.8,2.77,1.2,4.29,1.2s3.02-.39,4.38-1.17c1.36-.78,2.44-1.9,3.24-3.36.8-1.46,1.2-3.21,1.2-5.25s-.4-3.79-1.2-5.25Z"/><path class="uuid-cb8717f6-aeb0-4bbc-b892-fb8bc51029be" d="M977.97,120.47l-15.36,41.88h-10.2l-15.36-41.88h9l11.52,33.3,11.46-33.3h8.94Z"/><path class="uuid-cb8717f6-aeb0-4bbc-b892-fb8bc51029be" d="M989.1,136.67c1.34-2.6,3.16-4.6,5.46-6,2.3-1.4,4.87-2.1,7.71-2.1,2.48,0,4.65.5,6.51,1.5,1.86,1,3.35,2.26,4.47,3.78v-4.74h8.46v33.24h-8.46v-4.86c-1.08,1.56-2.57,2.85-4.47,3.87-1.9,1.02-4.09,1.53-6.57,1.53-2.8,0-5.35-.72-7.65-2.16-2.3-1.44-4.12-3.47-5.46-6.09-1.34-2.62-2.01-5.63-2.01-9.03s.67-6.34,2.01-8.94ZM1012.05,140.48c-.8-1.46-1.88-2.58-3.24-3.36-1.36-.78-2.82-1.17-4.38-1.17s-3,.38-4.32,1.14-2.39,1.87-3.21,3.33c-.82,1.46-1.23,3.19-1.23,5.19s.41,3.75,1.23,5.25c.82,1.5,1.9,2.65,3.24,3.45,1.34.8,2.77,1.2,4.29,1.2s3.02-.39,4.38-1.17c1.36-.78,2.44-1.9,3.24-3.36.8-1.46,1.2-3.21,1.2-5.25s-.4-3.79-1.2-5.25Z"/><path class="uuid-cb8717f6-aeb0-4bbc-b892-fb8bc51029be" d="M1067.54,129.11v33.24h-8.46v-4.2c-1.08,1.44-2.49,2.57-4.23,3.39s-3.63,1.23-5.67,1.23c-2.6,0-4.9-.55-6.9-1.65-2-1.1-3.57-2.72-4.71-4.86-1.14-2.14-1.71-4.69-1.71-7.65v-19.5h8.4v18.3c0,2.64.66,4.67,1.98,6.09,1.32,1.42,3.12,2.13,5.4,2.13s4.14-.71,5.46-2.13,1.98-3.45,1.98-6.09v-18.3h8.46Z"/><path class="uuid-cb8717f6-aeb0-4bbc-b892-fb8bc51029be" d="M1090.47,117.95v44.4h-8.4v-44.4h8.4Z"/><path class="uuid-cb8717f6-aeb0-4bbc-b892-fb8bc51029be" d="M1114.77,136.01v16.08c0,1.12.27,1.93.81,2.43.54.5,1.45.75,2.73.75h3.9v7.08h-5.28c-7.08,0-10.62-3.44-10.62-10.32v-16.02h-3.96v-6.9h3.96v-8.22h8.46v8.22h7.44v6.9h-7.44Z"/></svg>