<?xml version="1.0" encoding="UTF-8"?><svg id="uuid-b85f01f6-4ebc-46bd-8040-211cf45f8080" xmlns="http://www.w3.org/2000/svg" viewBox="0 0 800 800"><defs><style>.uuid-ca9d9014-9401-49e8-a15d-b9a07491a344{fill:#000;}.uuid-ca9d9014-9401-49e8-a15d-b9a07491a344,.uuid-5a1a6de4-40f6-40c4-9353-4a0847de8cc8,.uuid-f94cd1f4-4c07-4101-acf2-2dd6219b36f9,.uuid-269cd478-9316-4dd6-915d-9730c7c1d34c,.uuid-ce764e1f-de15-48b1-9384-104afc514dd5{stroke-width:0px;}.uuid-5a1a6de4-40f6-40c4-9353-4a0847de8cc8{fill:#32adc3;}.uuid-f94cd1f4-4c07-4101-acf2-2dd6219b36f9{fill:#ca278c;}.uuid-269cd478-9316-4dd6-915d-9730c7c1d34c{fill:#f49c31;isolation:isolate;}.uuid-ce764e1f-de15-48b1-9384-104afc514dd5{fill:#51539d;}</style></defs><polyline class="uuid-ce764e1f-de15-48b1-9384-104afc514dd5" points="424.9 54 735.87 54 735.87 338.2 424.9 338.2"/><path class="uuid-f94cd1f4-4c07-4101-acf2-2dd6219b36f9" d="M395.59,750.46c-28.25-7.64-68.85-21.91-112.15-49.7-45.34-29.1-73.16-59.88-87.94-76.47-35.55-39.9-54.37-74.99-72.64-109.6-24.37-46.16-63.89-121.02-42.06-141.46,6.15-5.76,15.13-5.29,19.12-5.1,43.46,2.06,148.68,1.4,293.12,0"/><path class="uuid-269cd478-9316-4dd6-915d-9730c7c1d34c" d="M749.89,352.86h-347.97v412.78c3.32-.02,6.62-.57,9.76-1.64,53.59-17.77,310.19-117.76,338.21-411.14h0Z"/><polyline class="uuid-5a1a6de4-40f6-40c4-9353-4a0847de8cc8" points="65.51 54 390.49 54 390.49 344.57 65.51 352.86"/><path class="uuid-ca9d9014-9401-49e8-a15d-b9a07491a344" d="M783,300.37V66.72c-.04-35.18-28.55-63.68-63.72-63.72H82.05c-35.18.04-63.68,28.55-63.72,63.72v233.65c0,19.35.94,37.95,2.64,55.91.02.28.05.55.08.82,29.9,312.23,302.61,418.81,359.81,437.77,12.85,4.36,26.77,4.36,39.62,0,57.19-18.96,329.86-125.52,359.81-437.68.04-.34.07-.67.1-1.01,1.69-17.93,2.62-36.5,2.62-55.8ZM719.28,300.37c0,7.21-.19,14.27-.46,21.26h-286.27V66.72h286.73v233.65ZM82.05,66.72h286.77v254.91H82.52c-.28-6.99-.46-14.05-.46-21.26V66.72ZM89.11,385.35h279.71v336.83c-78.28-33.18-243.65-126.98-279.71-336.83ZM432.55,722.15v-336.8h279.67c-36.03,209.71-201.22,303.53-279.67,336.8Z"/></svg>