<?xml version="1.0" encoding="UTF-8"?><svg id="uuid-2caa1e48-4625-4570-83c7-6f3bdde3e08c" xmlns="http://www.w3.org/2000/svg" viewBox="0 0 800 800"><defs><style>.uuid-3384ad0a-022d-49db-bcfc-3f2c3e824cfb{fill:#32adc3;}.uuid-3384ad0a-022d-49db-bcfc-3f2c3e824cfb,.uuid-2445ebd8-0047-401a-88bc-724f4bdaac8b,.uuid-9daf2056-fd34-4251-b239-442b335d435f,.uuid-3ac2d55b-66c2-4402-a385-7a1963eedadc,.uuid-443d5755-52c2-4c69-ab74-2b869a823b77{stroke-width:0px;}.uuid-2445ebd8-0047-401a-88bc-724f4bdaac8b{fill:#ca278c;}.uuid-9daf2056-fd34-4251-b239-442b335d435f{fill:#f49c31;isolation:isolate;}.uuid-3ac2d55b-66c2-4402-a385-7a1963eedadc{fill:#fff;}.uuid-443d5755-52c2-4c69-ab74-2b869a823b77{fill:#51539d;}</style></defs><polyline class="uuid-443d5755-52c2-4c69-ab74-2b869a823b77" points="424.9 54 735.87 54 735.87 338.2 424.9 338.2"/><path class="uuid-2445ebd8-0047-401a-88bc-724f4bdaac8b" d="M395.59,750.46c-28.25-7.64-68.85-21.91-112.15-49.7-45.34-29.1-73.16-59.88-87.94-76.47-35.55-39.9-54.37-74.99-72.64-109.6-24.37-46.16-63.89-121.02-42.06-141.46,6.15-5.76,15.13-5.29,19.12-5.1,43.46,2.06,148.68,1.4,293.12,0"/><path class="uuid-9daf2056-fd34-4251-b239-442b335d435f" d="M749.89,352.86h-347.97v412.78c3.32-.02,6.62-.57,9.76-1.64,53.59-17.77,310.19-117.76,338.21-411.14h0Z"/><polyline class="uuid-3384ad0a-022d-49db-bcfc-3f2c3e824cfb" points="65.51 54 390.49 54 390.49 344.57 65.51 352.86"/><path class="uuid-3ac2d55b-66c2-4402-a385-7a1963eedadc" d="M783,300.37V66.72c-.04-35.18-28.55-63.68-63.72-63.72H82.05c-35.18.04-63.68,28.55-63.72,63.72v233.65c0,19.35.94,37.95,2.64,55.91.02.28.05.55.08.82,29.9,312.23,302.61,418.81,359.81,437.77,12.85,4.36,26.77,4.36,39.62,0,57.19-18.96,329.86-125.52,359.81-437.68.04-.34.07-.67.1-1.01,1.69-17.93,2.62-36.5,2.62-55.8ZM719.28,300.37c0,7.21-.19,14.27-.46,21.26h-286.27V66.72h286.73v233.65ZM82.05,66.72h286.77v254.91H82.52c-.28-6.99-.46-14.05-.46-21.26V66.72ZM89.11,385.35h279.71v336.83c-78.28-33.18-243.65-126.98-279.71-336.83ZM432.55,722.15v-336.8h279.67c-36.03,209.71-201.22,303.53-279.67,336.8Z"/></svg>