<?xml version="1.0" encoding="UTF-8"?><svg id="uuid-5445ce6c-b86e-474d-8de8-3008daa717bd" xmlns="http://www.w3.org/2000/svg" viewBox="0 0 1164 180"><defs><style>.uuid-8c6aebb6-c74a-4c42-aac0-ec12235a488c{fill:#000;}.uuid-8c6aebb6-c74a-4c42-aac0-ec12235a488c,.uuid-8078b487-1b55-4304-8dad-4d0503e4527a,.uuid-f5d902a4-659e-4bf9-beab-1f6846b64c45,.uuid-c573f538-3428-4749-ad31-90c2de6cf776,.uuid-6d7b7653-b8d7-4281-bb3e-5ae4b50a32fb{stroke-width:0px;}.uuid-8078b487-1b55-4304-8dad-4d0503e4527a{fill:#32adc3;}.uuid-f5d902a4-659e-4bf9-beab-1f6846b64c45{fill:#ca278c;}.uuid-c573f538-3428-4749-ad31-90c2de6cf776{fill:#f49c31;isolation:isolate;}.uuid-6d7b7653-b8d7-4281-bb3e-5ae4b50a32fb{fill:#51539d;}</style></defs><path class="uuid-8c6aebb6-c74a-4c42-aac0-ec12235a488c" d="M313.88,41.91c22.82,0,37.17,8.47,37.17,27.16,0,9.87-6.02,17.78-14.21,20.79,8.96,3.01,16.31,11.41,16.31,21.98,0,18.83-13.37,28.07-36.89,28.07h-42.42V41.91h40.04ZM293.37,59.14v22.89h20.02c9.73,0,17.29-2.03,17.29-11.55s-7.7-11.34-17.36-11.34h-19.95ZM293.37,99.18v23.52l21.91.07c10.78,0,17.57-2.52,17.57-11.9s-6.79-11.69-17.57-11.69h-21.91Z"/><path class="uuid-8c6aebb6-c74a-4c42-aac0-ec12235a488c" d="M382.12,139.92h-19.53V41.91h19.53v98.01Z"/><path class="uuid-8c6aebb6-c74a-4c42-aac0-ec12235a488c" d="M436.31,41.91c22.82,0,37.17,8.47,37.17,27.16,0,9.87-6.02,17.78-14.21,20.79,8.96,3.01,16.31,11.41,16.31,21.98,0,18.83-13.37,28.07-36.89,28.07h-42.42V41.91h40.04ZM415.79,59.14v22.89h20.02c9.73,0,17.29-2.03,17.29-11.55s-7.7-11.34-17.36-11.34h-19.95ZM415.79,99.18v23.52l21.91.07c10.78,0,17.57-2.52,17.57-11.9s-6.79-11.69-17.57-11.69h-21.91Z"/><path class="uuid-8c6aebb6-c74a-4c42-aac0-ec12235a488c" d="M556.36,139.92h-71.34V41.91h19.53v79.74h51.81v18.27Z"/><path class="uuid-8c6aebb6-c74a-4c42-aac0-ec12235a488c" d="M587.15,139.92h-19.53V41.91h19.53v98.01Z"/><path class="uuid-8c6aebb6-c74a-4c42-aac0-ec12235a488c" d="M700.98,90.92c0,29.26-21.35,50.82-51.53,50.82s-51.46-21.56-51.46-50.82,21.28-50.83,51.46-50.83,51.53,21.56,51.53,50.83ZM618.37,90.92c0,19.04,13.09,32.06,31.08,32.06s31.08-13.02,31.08-32.06-13.02-32.06-31.08-32.06-31.08,13.02-31.08,32.06Z"/><path class="uuid-8c6aebb6-c74a-4c42-aac0-ec12235a488c" d="M755.07,105l-3.98-19.34h-.35l-3.81,19.57-7.91,34.69h-11.07l-13.07-64.34h9.49l5.74,31.82c1.33,7.27,2.44,14.94,3.34,23.03h.35c1.21-7.23,2.54-14.22,3.98-20.98l7.79-33.87h11.31l7.44,33.87c1.68,7.62,2.99,14.61,3.93,20.98h.35c1.21-9.45,2.38-17.13,3.52-23.03l5.98-31.82h9.26l-13.18,64.34h-11.43l-7.68-34.92Z"/><path class="uuid-8c6aebb6-c74a-4c42-aac0-ec12235a488c" d="M838.11,131.02h-.47c-3.01,3.79-6.09,6.42-9.26,7.88s-7.25,2.2-12.25,2.2c-6.37,0-11.36-1.68-14.97-5.04s-5.42-8.07-5.42-14.12c0-12.97,9.96-19.77,29.88-20.39l11.89-.41v-4.04c0-9.22-4.77-13.83-14.3-13.83-5.74,0-12.15,1.6-19.22,4.8l-3.69-8.03c7.66-3.75,15.14-5.62,22.44-5.62,8.87,0,15.28,1.7,19.25,5.1s5.95,8.85,5.95,16.35v44.06h-7.68l-2.17-8.91ZM827.92,108.87c-7.66.31-13.09,1.51-16.29,3.6s-4.8,5.28-4.8,9.58c0,6.95,3.91,10.43,11.72,10.43,5.74,0,10.32-1.59,13.74-4.78s5.13-7.67,5.13-13.45v-5.8l-9.49.41Z"/><path class="uuid-8c6aebb6-c74a-4c42-aac0-ec12235a488c" d="M903.79,86.78c-4.8-1.76-9.18-2.64-13.12-2.64-6.37,0-11.28,1.81-14.74,5.42-3.46,3.61-5.19,8.84-5.19,15.67v34.69h-10.66v-64.34h8.67l1.29,11.78h.47c2.97-4.65,6.15-7.97,9.55-9.96s7.58-2.99,12.54-2.99c4.61,0,9.3.88,14.06,2.64l-2.87,9.73Z"/><path class="uuid-8c6aebb6-c74a-4c42-aac0-ec12235a488c" d="M953.47,131.31c-4.41,6.52-10.7,9.79-18.87,9.79s-14.01-2.92-18.49-8.76-6.71-13.99-6.71-24.46,2.25-18.76,6.74-24.64,10.64-8.82,18.46-8.82,14.34,3.12,18.87,9.38h.7c-.47-5.04-.7-8.2-.7-9.49v-25.55h10.66v91.17h-8.61l-1.58-8.61h-.47ZM953.47,107.87c0-8.87-1.36-15.19-4.07-18.95-2.71-3.77-7.04-5.65-12.98-5.65-10.62,0-15.94,8.24-15.94,24.73s5.35,24.26,16.05,24.26c5.94,0,10.21-1.73,12.8-5.19s3.97-9.05,4.13-16.79v-2.4Z"/><path class="uuid-8c6aebb6-c74a-4c42-aac0-ec12235a488c" d="M987.7,109.81c.31,14.65,7.03,21.97,20.16,21.97,7.62,0,14.84-1.48,21.68-4.45v9.38c-6.48,2.93-13.59,4.39-21.33,4.39-9.57,0-17.23-2.92-22.97-8.76s-8.61-13.88-8.61-24.11,2.65-18.62,7.94-24.7,12.37-9.11,21.24-9.11c8.28,0,14.89,2.62,19.83,7.85s7.41,12.21,7.41,20.92v6.62h-45.35ZM1021.51,101.13c0-11.91-5.31-17.87-15.94-17.87s-16.62,5.96-17.64,17.87h33.57Z"/><path class="uuid-8c6aebb6-c74a-4c42-aac0-ec12235a488c" d="M1088.26,98.5c0-10.16-4.65-15.23-13.95-15.23-11.99,0-17.99,7.77-17.99,23.32v33.34h-10.66v-64.34h8.61l1.58,8.67h.59c4.02-6.56,10.59-9.84,19.69-9.84,15.2,0,22.79,7.83,22.79,23.5v42.01h-10.66v-41.43Z"/><polyline class="uuid-6d7b7653-b8d7-4281-bb3e-5ae4b50a32fb" points="161.73 12.71 231.08 12.71 231.08 76.09 161.73 76.09"/><path class="uuid-f5d902a4-659e-4bf9-beab-1f6846b64c45" d="M155.19,168.03c-6.3-1.7-15.35-4.89-25.01-11.08-10.11-6.49-16.32-13.35-19.61-17.05-7.93-8.9-12.13-16.72-16.2-24.44-5.44-10.3-14.25-26.99-9.38-31.55,1.37-1.28,3.38-1.18,4.26-1.14,9.69.46,33.16.31,65.37,0"/><path class="uuid-c573f538-3428-4749-ad31-90c2de6cf776" d="M234.21,79.36h-77.6v92.06c.74,0,1.48-.13,2.18-.36,11.95-3.96,69.18-26.26,75.43-91.69h0Z"/><polyline class="uuid-8078b487-1b55-4304-8dad-4d0503e4527a" points="81.58 12.71 154.05 12.71 154.05 77.51 81.58 79.36"/><path class="uuid-8c6aebb6-c74a-4c42-aac0-ec12235a488c" d="M241.59,67.65V15.54c0-7.85-6.37-14.2-14.21-14.21H85.27c-7.85,0-14.2,6.37-14.21,14.21v52.11c0,4.31.21,8.46.59,12.47,0,.06.01.12.02.18,6.67,69.63,67.49,93.4,80.25,97.63,2.87.97,5.97.97,8.84,0,12.76-4.23,73.57-27.99,80.24-97.61,0-.08.02-.15.02-.23.38-4,.59-8.14.59-12.45ZM227.38,67.65c0,1.61-.04,3.18-.1,4.74h-63.84V15.54h63.95v52.11ZM85.27,15.54h63.96v56.85h-63.85c-.06-1.56-.1-3.13-.1-4.74V15.54ZM86.84,86.61h62.38v75.12c-17.46-7.4-54.34-28.32-62.38-75.12ZM163.43,161.72v-75.11h62.37c-8.04,46.77-44.88,67.69-62.37,75.11Z"/></svg>